<svg id="visual" viewBox="0 0 960 540" width="960" height="540" xmlns="http://www.w3.org/2000/svg" xmlns:xlink="http://www.w3.org/1999/xlink" version="1.1"><path d="M0 390L16 391.5C32 393 64 396 96 393.8C128 391.7 160 384.3 192 377.8C224 371.3 256 365.7 288 368.2C320 370.7 352 381.3 384 381.7C416 382 448 372 480 371.8C512 371.7 544 381.3 576 382.5C608 383.7 640 376.3 672 378.7C704 381 736 393 768 392.8C800 392.7 832 380.3 864 381.2C896 382 928 396 944 403L960 410L960 541L944 541C928 541 896 541 864 541C832 541 800 541 768 541C736 541 704 541 672 541C640 541 608 541 576 541C544 541 512 541 480 541C448 541 416 541 384 541C352 541 320 541 288 541C256 541 224 541 192 541C160 541 128 541 96 541C64 541 32 541 16 541L0 541Z" fill="#282d30"></path><path d="M0 435L16 426.8C32 418.7 64 402.3 96 394.8C128 387.3 160 388.7 192 393.7C224 398.7 256 407.3 288 406.7C320 406 352 396 384 390.3C416 384.7 448 383.3 480 390.8C512 398.3 544 414.7 576 418C608 421.3 640 411.7 672 412.3C704 413 736 424 768 429.3C800 434.7 832 434.3 864 429.7C896 425 928 416 944 411.5L960 407L960 541L944 541C928 541 896 541 864 541C832 541 800 541 768 541C736 541 704 541 672 541C640 541 608 541 576 541C544 541 512 541 480 541C448 541 416 541 384 541C352 541 320 541 288 541C256 541 224 541 192 541C160 541 128 541 96 541C64 541 32 541 16 541L0 541Z" fill="#304b52"></path><path d="M0 433L16 437.2C32 441.3 64 449.7 96 446.3C128 443 160 428 192 421.5C224 415 256 417 288 415C320 413 352 407 384 407.7C416 408.3 448 415.7 480 421.3C512 427 544 431 576 429.7C608 428.3 640 421.7 672 419.2C704 416.7 736 418.3 768 415.8C800 413.3 832 406.7 864 405.7C896 404.7 928 409.3 944 411.7L960 414L960 541L944 541C928 541 896 541 864 541C832 541 800 541 768 541C736 541 704 541 672 541C640 541 608 541 576 541C544 541 512 541 480 541C448 541 416 541 384 541C352 541 320 541 288 541C256 541 224 541 192 541C160 541 128 541 96 541C64 541 32 541 16 541L0 541Z" fill="#336c70"></path><path d="M0 439L16 437.5C32 436 64 433 96 438C128 443 160 456 192 456C224 456 256 443 288 437.8C320 432.7 352 435.3 384 442.3C416 449.3 448 460.7 480 464C512 467.3 544 462.7 576 458.5C608 454.3 640 450.7 672 450.7C704 450.7 736 454.3 768 454.2C800 454 832 450 864 449C896 448 928 450 944 451L960 452L960 541L944 541C928 541 896 541 864 541C832 541 800 541 768 541C736 541 704 541 672 541C640 541 608 541 576 541C544 541 512 541 480 541C448 541 416 541 384 541C352 541 320 541 288 541C256 541 224 541 192 541C160 541 128 541 96 541C64 541 32 541 16 541L0 541Z" fill="#3c8e86"></path><path d="M0 486L16 488.2C32 490.3 64 494.7 96 493C128 491.3 160 483.7 192 476.8C224 470 256 464 288 463C320 462 352 466 384 473.5C416 481 448 492 480 495.7C512 499.3 544 495.7 576 493C608 490.3 640 488.7 672 485.2C704 481.7 736 476.3 768 475C800 473.7 832 476.3 864 474.2C896 472 928 465 944 461.5L960 458L960 541L944 541C928 541 896 541 864 541C832 541 800 541 768 541C736 541 704 541 672 541C640 541 608 541 576 541C544 541 512 541 480 541C448 541 416 541 384 541C352 541 320 541 288 541C256 541 224 541 192 541C160 541 128 541 96 541C64 541 32 541 16 541L0 541Z" fill="#57b193"></path><path d="M0 520L16 516.2C32 512.3 64 504.7 96 500.2C128 495.7 160 494.3 192 496.2C224 498 256 503 288 508.7C320 514.3 352 520.7 384 521C416 521.3 448 515.7 480 513.7C512 511.7 544 513.3 576 513C608 512.7 640 510.3 672 509.2C704 508 736 508 768 510.2C800 512.3 832 516.7 864 514.2C896 511.7 928 502.3 944 497.7L960 493L960 541L944 541C928 541 896 541 864 541C832 541 800 541 768 541C736 541 704 541 672 541C640 541 608 541 576 541C544 541 512 541 480 541C448 541 416 541 384 541C352 541 320 541 288 541C256 541 224 541 192 541C160 541 128 541 96 541C64 541 32 541 16 541L0 541Z" fill="#82d398"></path></svg>