<svg id="visual" viewBox="0 0 960 540" width="960" height="540" xmlns="http://www.w3.org/2000/svg" xmlns:xlink="http://www.w3.org/1999/xlink" version="1.1"><path d="M0 188L64 170L128 170L192 153L256 180L320 151L384 180L448 175L512 180L576 143L640 185L704 151L768 172L832 172L896 166L960 162L960 0L896 0L832 0L768 0L704 0L640 0L576 0L512 0L448 0L384 0L320 0L256 0L192 0L128 0L64 0L0 0Z" fill="#282d30"></path><path d="M0 131L64 127L128 143L192 122L256 123L320 123L384 118L448 126L512 147L576 124L640 128L704 158L768 135L832 118L896 118L960 115L960 0L896 0L832 0L768 0L704 0L640 0L576 0L512 0L448 0L384 0L320 0L256 0L192 0L128 0L64 0L0 0Z" fill="#304b52"></path><path d="M0 99L64 112L128 115L192 101L256 120L320 130L384 98L448 89L512 130L576 110L640 123L704 115L768 100L832 90L896 101L960 98L960 0L896 0L832 0L768 0L704 0L640 0L576 0L512 0L448 0L384 0L320 0L256 0L192 0L128 0L64 0L0 0Z" fill="#336c70"></path><path d="M0 96L64 64L128 102L192 66L256 89L320 87L384 71L448 84L512 65L576 94L640 93L704 72L768 85L832 86L896 89L960 71L960 0L896 0L832 0L768 0L704 0L640 0L576 0L512 0L448 0L384 0L320 0L256 0L192 0L128 0L64 0L0 0Z" fill="#3c8e86"></path><path d="M0 69L64 39L128 74L192 52L256 47L320 50L384 65L448 50L512 43L576 60L640 73L704 68L768 58L832 68L896 48L960 57L960 0L896 0L832 0L768 0L704 0L640 0L576 0L512 0L448 0L384 0L320 0L256 0L192 0L128 0L64 0L0 0Z" fill="#57b193"></path><path d="M0 19L64 15L128 26L192 15L256 35L320 37L384 22L448 16L512 20L576 27L640 38L704 26L768 42L832 19L896 34L960 33L960 0L896 0L832 0L768 0L704 0L640 0L576 0L512 0L448 0L384 0L320 0L256 0L192 0L128 0L64 0L0 0Z" fill="#82d398"></path></svg>