<svg id="visual" viewBox="0 0 960 540" width="960" height="540" xmlns="http://www.w3.org/2000/svg" xmlns:xlink="http://www.w3.org/1999/xlink" version="1.1"><path d="M0 361L64 398L128 391L192 373L256 388L320 353L384 357L448 383L512 370L576 396L640 373L704 394L768 360L832 355L896 369L960 388L960 541L896 541L832 541L768 541L704 541L640 541L576 541L512 541L448 541L384 541L320 541L256 541L192 541L128 541L64 541L0 541Z" fill="#282d30"></path><path d="M0 420L64 387L128 405L192 421L256 384L320 428L384 389L448 390L512 413L576 400L640 401L704 398L768 398L832 388L896 392L960 426L960 541L896 541L832 541L768 541L704 541L640 541L576 541L512 541L448 541L384 541L320 541L256 541L192 541L128 541L64 541L0 541Z" fill="#304b52"></path><path d="M0 441L64 444L128 436L192 429L256 420L320 408L384 451L448 423L512 436L576 421L640 432L704 429L768 426L832 428L896 450L960 452L960 541L896 541L832 541L768 541L704 541L640 541L576 541L512 541L448 541L384 541L320 541L256 541L192 541L128 541L64 541L0 541Z" fill="#336c70"></path><path d="M0 463L64 470L128 466L192 439L256 443L320 475L384 449L448 473L512 442L576 472L640 456L704 441L768 442L832 470L896 453L960 446L960 541L896 541L832 541L768 541L704 541L640 541L576 541L512 541L448 541L384 541L320 541L256 541L192 541L128 541L64 541L0 541Z" fill="#3c8e86"></path><path d="M0 471L64 479L128 466L192 478L256 493L320 492L384 474L448 476L512 471L576 497L640 491L704 468L768 492L832 477L896 491L960 497L960 541L896 541L832 541L768 541L704 541L640 541L576 541L512 541L448 541L384 541L320 541L256 541L192 541L128 541L64 541L0 541Z" fill="#57b193"></path><path d="M0 503L64 500L128 502L192 503L256 506L320 499L384 519L448 494L512 493L576 505L640 493L704 517L768 495L832 504L896 514L960 516L960 541L896 541L832 541L768 541L704 541L640 541L576 541L512 541L448 541L384 541L320 541L256 541L192 541L128 541L64 541L0 541Z" fill="#82d398"></path></svg>