<svg id="visual" viewBox="0 0 960 540" width="960" height="540" xmlns="http://www.w3.org/2000/svg" xmlns:xlink="http://www.w3.org/1999/xlink" version="1.1"><path d="M0 160L16 155.7C32 151.3 64 142.7 96 148.5C128 154.3 160 174.7 192 179.3C224 184 256 173 288 169.2C320 165.3 352 168.7 384 172.3C416 176 448 180 480 173.2C512 166.3 544 148.7 576 148C608 147.3 640 163.7 672 173C704 182.3 736 184.7 768 183.2C800 181.7 832 176.3 864 173.2C896 170 928 169 944 168.5L960 168L960 0L944 0C928 0 896 0 864 0C832 0 800 0 768 0C736 0 704 0 672 0C640 0 608 0 576 0C544 0 512 0 480 0C448 0 416 0 384 0C352 0 320 0 288 0C256 0 224 0 192 0C160 0 128 0 96 0C64 0 32 0 16 0L0 0Z" fill="#282d30"></path><path d="M0 123L16 129C32 135 64 147 96 151.7C128 156.3 160 153.7 192 148.8C224 144 256 137 288 139.8C320 142.7 352 155.3 384 155.5C416 155.7 448 143.3 480 139C512 134.7 544 138.3 576 140.2C608 142 640 142 672 140C704 138 736 134 768 138.2C800 142.3 832 154.7 864 159.3C896 164 928 161 944 159.5L960 158L960 0L944 0C928 0 896 0 864 0C832 0 800 0 768 0C736 0 704 0 672 0C640 0 608 0 576 0C544 0 512 0 480 0C448 0 416 0 384 0C352 0 320 0 288 0C256 0 224 0 192 0C160 0 128 0 96 0C64 0 32 0 16 0L0 0Z" fill="#304b52"></path><path d="M0 97L16 100C32 103 64 109 96 106.3C128 103.7 160 92.3 192 87.3C224 82.3 256 83.7 288 92.3C320 101 352 117 384 123.8C416 130.7 448 128.3 480 124C512 119.7 544 113.3 576 108.8C608 104.3 640 101.7 672 99.2C704 96.7 736 94.3 768 99.2C800 104 832 116 864 121.3C896 126.7 928 125.3 944 124.7L960 124L960 0L944 0C928 0 896 0 864 0C832 0 800 0 768 0C736 0 704 0 672 0C640 0 608 0 576 0C544 0 512 0 480 0C448 0 416 0 384 0C352 0 320 0 288 0C256 0 224 0 192 0C160 0 128 0 96 0C64 0 32 0 16 0L0 0Z" fill="#336c70"></path><path d="M0 61L16 60.7C32 60.3 64 59.7 96 65.5C128 71.3 160 83.7 192 84.8C224 86 256 76 288 77.5C320 79 352 92 384 90.5C416 89 448 73 480 67.3C512 61.7 544 66.3 576 70C608 73.7 640 76.3 672 77.8C704 79.3 736 79.7 768 76C800 72.3 832 64.7 864 65.2C896 65.7 928 74.3 944 78.7L960 83L960 0L944 0C928 0 896 0 864 0C832 0 800 0 768 0C736 0 704 0 672 0C640 0 608 0 576 0C544 0 512 0 480 0C448 0 416 0 384 0C352 0 320 0 288 0C256 0 224 0 192 0C160 0 128 0 96 0C64 0 32 0 16 0L0 0Z" fill="#3c8e86"></path><path d="M0 75L16 70.2C32 65.3 64 55.7 96 51.5C128 47.3 160 48.7 192 53.5C224 58.3 256 66.7 288 71C320 75.3 352 75.7 384 74.7C416 73.7 448 71.3 480 65.8C512 60.3 544 51.7 576 52.2C608 52.7 640 62.3 672 63.5C704 64.7 736 57.3 768 54.7C800 52 832 54 864 56.5C896 59 928 62 944 63.5L960 65L960 0L944 0C928 0 896 0 864 0C832 0 800 0 768 0C736 0 704 0 672 0C640 0 608 0 576 0C544 0 512 0 480 0C448 0 416 0 384 0C352 0 320 0 288 0C256 0 224 0 192 0C160 0 128 0 96 0C64 0 32 0 16 0L0 0Z" fill="#57b193"></path><path d="M0 20L16 23.5C32 27 64 34 96 37.2C128 40.3 160 39.7 192 34.8C224 30 256 21 288 23C320 25 352 38 384 41.3C416 44.7 448 38.3 480 38C512 37.7 544 43.3 576 39.8C608 36.3 640 23.7 672 23C704 22.3 736 33.7 768 35.3C800 37 832 29 864 23C896 17 928 13 944 11L960 9L960 0L944 0C928 0 896 0 864 0C832 0 800 0 768 0C736 0 704 0 672 0C640 0 608 0 576 0C544 0 512 0 480 0C448 0 416 0 384 0C352 0 320 0 288 0C256 0 224 0 192 0C160 0 128 0 96 0C64 0 32 0 16 0L0 0Z" fill="#82d398"></path></svg>